<svg xmlns="http://www.w3.org/2000/svg" version="1.1" xmlns:xlink="http://www.w3.org/1999/xlink" xmlns:svgjs="http://svgjs.dev/svgjs" width="1500" height="356" viewBox="0 0 1500 356"><g transform="matrix(1,0,0,1,-0.9090909090909918,-1.1183324246508448)"><svg viewBox="0 0 396 94" data-background-color="#111111" preserveAspectRatio="xMidYMid meet" height="356" width="1500" xmlns="http://www.w3.org/2000/svg" xmlns:xlink="http://www.w3.org/1999/xlink"><g id="tight-bounds" transform="matrix(1,0,0,1,0.2400000000000091,0.29529002223927137)"><svg viewBox="0 0 395.52 93.40941995552149" height="93.40941995552149" width="395.52"><g><svg viewBox="0 0 395.52 93.40941995552149" height="93.40941995552149" width="395.52"><g transform="matrix(1,0,0,1,0,57.73076893258652)"><svg viewBox="0 0 395.52 35.678651022934964" height="35.678651022934964" width="395.52"><g id="textblocktransform"><svg viewBox="0 0 395.52 35.678651022934964" height="35.678651022934964" width="395.52" id="textblock"><g><svg viewBox="0 0 395.52 35.678651022934964" height="35.678651022934964" width="395.52"><g transform="matrix(1,0,0,1,0,0)"><svg width="395.52" viewBox="4.69 -36.74 414.04 37.35" height="35.678651022934964" data-palette-color="#ffffff"><path d="M8.28 0L4.69 0 4.69-33.84 9.57-33.84 16.16-15.5Q16.8-13.72 17.4-11.95 17.99-10.18 18.6-8.4L18.6-8.4 18.8-8.4Q19.43-10.18 20-11.95 20.56-13.72 21.17-15.5L21.17-15.5 27.66-33.84 32.62-33.84 32.62 0 28.86 0 28.86-19.17Q28.86-21.36 29.03-24.24 29.2-27.12 29.37-29.37L29.37-29.37 29.15-29.37 26.49-21.39 20-3.44 17.21-3.44 10.72-21.39 8.03-29.37 7.81-29.37Q7.98-27.12 8.13-24.24 8.28-21.36 8.28-19.17L8.28-19.17 8.28 0ZM51.61 0.61L51.61 0.61Q48.31 0.61 45.62-0.95 42.92-2.51 41.32-5.44 39.72-8.37 39.72-12.45L39.72-12.45Q39.72-16.53 41.32-19.48 42.92-22.44 45.48-24.02 48.04-25.61 50.9-25.61L50.9-25.61Q55.61-25.61 58.2-22.46 60.79-19.31 60.79-13.89L60.79-13.89Q60.79-12.52 60.64-11.57L60.64-11.57 43.63-11.57Q43.82-7.5 46.12-5 48.41-2.51 52.07-2.51L52.07-2.51Q53.95-2.51 55.52-3.02 57.08-3.52 58.42-4.42L58.42-4.42 59.81-1.95Q58.18-0.83 56.2-0.11 54.22 0.61 51.61 0.61ZM43.58-14.43L43.58-14.43 57.3-14.43Q57.3-18.36 55.64-20.41 53.98-22.46 50.95-22.46L50.95-22.46Q48.24-22.46 46.1-20.36 43.97-18.26 43.58-14.43ZM70.97 0L67.01 0 67.01-24.98 70.31-24.98 70.67-21.39 70.77-21.39Q72.58-23.17 74.6-24.39 76.63-25.61 79.22-25.61L79.22-25.61Q83.12-25.61 84.96-23.13 86.79-20.65 86.79-15.87L86.79-15.87 86.79 0 82.88 0 82.88-15.36Q82.88-18.92 81.73-20.56 80.59-22.19 77.97-22.19L77.97-22.19Q76.04-22.19 74.48-21.17 72.92-20.14 70.97-18.19L70.97-18.19 70.97 0ZM102.75 0.61L102.75 0.61Q98.82 0.61 97.28-1.66 95.74-3.93 95.74-7.62L95.74-7.62 95.74-21.73 92.03-21.73 92.03-24.78 95.96-24.98 96.43-33.08 99.72-33.08 99.72-24.98 106.58-24.98 106.58-21.73 99.72-21.73 99.72-7.52Q99.72-5.2 100.58-3.91 101.43-2.61 103.63-2.61L103.63-2.61Q104.29-2.61 105.02-2.75 105.75-2.88 106.51-3.22L106.51-3.22 107.39-0.44Q106.39 0 105.19 0.31 104 0.61 102.75 0.61ZM118.01 0.61L118.01 0.61Q114.88 0.61 112.78-1.21 110.68-3.03 110.68-6.42L110.68-6.42Q110.68-10.52 114.41-12.72 118.13-14.92 126.16-15.82L126.16-15.82Q126.16-17.48 125.71-18.97 125.26-20.46 124.12-21.41 122.99-22.36 120.89-22.36L120.89-22.36Q118.67-22.36 116.73-21.51 114.78-20.65 113.32-19.73L113.32-19.73 111.78-22.36Q113.44-23.51 115.97-24.56 118.5-25.61 121.52-25.61L121.52-25.61Q126.09-25.61 128.1-22.8 130.12-20 130.12-15.41L130.12-15.41 130.12 0 126.82 0 126.5-3.03 126.36-3.03Q124.55-1.54 122.44-0.46 120.33 0.61 118.01 0.61ZM119.08-2.56L119.08-2.56Q120.96-2.56 122.61-3.44 124.26-4.32 126.16-5.96L126.16-5.96 126.16-13.18Q121.84-12.65 119.3-11.77 116.76-10.89 115.66-9.64 114.57-8.4 114.57-6.74L114.57-6.74Q114.57-4.52 115.88-3.54 117.2-2.56 119.08-2.56ZM142.37 0.61L142.37 0.61Q140.12 0.61 139.11-0.77 138.1-2.15 138.1-4.79L138.1-4.79 138.1-36.74 142.05-36.74 142.05-4.47Q142.05-3.47 142.42-3.06 142.79-2.66 143.3-2.66L143.3-2.66Q143.49-2.66 143.68-2.67 143.86-2.69 144.18-2.76L144.18-2.76 144.69 0.2Q144.27 0.37 143.69 0.49 143.1 0.61 142.37 0.61ZM171.59 0L167.59 0 167.59-33.84 171.59-33.84 171.59-19.58 187.68-19.58 187.68-33.84 191.71-33.84 191.71 0 187.68 0 187.68-16.06 171.59-16.06 171.59 0ZM210.7 0.61L210.7 0.61Q207.4 0.61 204.7-0.95 202.01-2.51 200.41-5.44 198.81-8.37 198.81-12.45L198.81-12.45Q198.81-16.53 200.41-19.48 202.01-22.44 204.57-24.02 207.13-25.61 209.99-25.61L209.99-25.61Q214.7-25.61 217.29-22.46 219.88-19.31 219.88-13.89L219.88-13.89Q219.88-12.52 219.73-11.57L219.73-11.57 202.71-11.57Q202.91-7.5 205.2-5 207.5-2.51 211.16-2.51L211.16-2.51Q213.04-2.51 214.6-3.02 216.17-3.52 217.51-4.42L217.51-4.42 218.9-1.95Q217.27-0.83 215.29-0.11 213.31 0.61 210.7 0.61ZM202.67-14.43L202.67-14.43 216.39-14.43Q216.39-18.36 214.73-20.41 213.07-22.46 210.04-22.46L210.04-22.46Q207.33-22.46 205.19-20.36 203.06-18.26 202.67-14.43ZM231.86 0.61L231.86 0.61Q228.74 0.61 226.64-1.21 224.54-3.03 224.54-6.42L224.54-6.42Q224.54-10.52 228.26-12.72 231.98-14.92 240.02-15.82L240.02-15.82Q240.02-17.48 239.56-18.97 239.11-20.46 237.98-21.41 236.84-22.36 234.74-22.36L234.74-22.36Q232.52-22.36 230.58-21.51 228.64-20.65 227.17-19.73L227.17-19.73 225.64-22.36Q227.3-23.51 229.82-24.56 232.35-25.61 235.38-25.61L235.38-25.61Q239.94-25.61 241.96-22.8 243.97-20 243.97-15.41L243.97-15.41 243.97 0 240.68 0 240.36-3.03 240.21-3.03Q238.41-1.54 236.29-0.46 234.18 0.61 231.86 0.61ZM232.94-2.56L232.94-2.56Q234.82-2.56 236.46-3.44 238.11-4.32 240.02-5.96L240.02-5.96 240.02-13.18Q235.7-12.65 233.16-11.77 230.62-10.89 229.52-9.64 228.42-8.4 228.42-6.74L228.42-6.74Q228.42-4.52 229.74-3.54 231.06-2.56 232.94-2.56ZM256.23 0.61L256.23 0.61Q253.98 0.61 252.97-0.77 251.95-2.15 251.95-4.79L251.95-4.79 251.95-36.74 255.91-36.74 255.91-4.47Q255.91-3.47 256.27-3.06 256.64-2.66 257.15-2.66L257.15-2.66Q257.35-2.66 257.53-2.67 257.71-2.69 258.03-2.76L258.03-2.76 258.54 0.2Q258.13 0.37 257.54 0.49 256.96 0.61 256.23 0.61ZM272.63 0.61L272.63 0.61Q268.7 0.61 267.16-1.66 265.62-3.93 265.62-7.62L265.62-7.62 265.62-21.73 261.91-21.73 261.91-24.78 265.84-24.98 266.31-33.08 269.6-33.08 269.6-24.98 276.46-24.98 276.46-21.73 269.6-21.73 269.6-7.52Q269.6-5.2 270.46-3.91 271.31-2.61 273.51-2.61L273.51-2.61Q274.17-2.61 274.9-2.75 275.63-2.88 276.39-3.22L276.39-3.22 277.27-0.44Q276.27 0 275.07 0.31 273.87 0.61 272.63 0.61ZM286.08 0L282.12 0 282.12-36.74 286.08-36.74 286.08-26.64 285.93-21.44Q287.74-23.17 289.74-24.39 291.74-25.61 294.33-25.61L294.33-25.61Q298.24-25.61 300.07-23.13 301.9-20.65 301.9-15.87L301.9-15.87 301.9 0 297.99 0 297.99-15.36Q297.99-18.92 296.85-20.56 295.7-22.19 293.09-22.19L293.09-22.19Q291.16-22.19 289.59-21.17 288.03-20.14 286.08-18.19L286.08-18.19 286.08 0ZM335.12 0L326.58 0 326.58-33.84 334.93-33.84Q342.74-33.84 346.79-29.44 350.84-25.05 350.84-17.04L350.84-17.04Q350.84-9.01 346.82-4.5 342.79 0 335.12 0L335.12 0ZM330.58-30.54L330.58-3.3 334.61-3.3Q340.66-3.3 343.67-6.95 346.67-10.6 346.67-17.04L346.67-17.04Q346.67-23.46 343.67-27 340.66-30.54 334.61-30.54L334.61-30.54 330.58-30.54ZM363.56 0.61L363.56 0.61Q360.44 0.61 358.34-1.21 356.24-3.03 356.24-6.42L356.24-6.42Q356.24-10.52 359.96-12.72 363.68-14.92 371.72-15.82L371.72-15.82Q371.72-17.48 371.26-18.97 370.81-20.46 369.68-21.41 368.54-22.36 366.44-22.36L366.44-22.36Q364.22-22.36 362.28-21.51 360.34-20.65 358.87-19.73L358.87-19.73 357.34-22.36Q359-23.51 361.52-24.56 364.05-25.61 367.08-25.61L367.08-25.61Q371.64-25.61 373.66-22.8 375.67-20 375.67-15.41L375.67-15.41 375.67 0 372.37 0 372.06-3.03 371.91-3.03Q370.1-1.54 367.99-0.46 365.88 0.61 363.56 0.61ZM364.64-2.56L364.64-2.56Q366.52-2.56 368.16-3.44 369.81-4.32 371.72-5.96L371.72-5.96 371.72-13.18Q367.39-12.65 364.86-11.77 362.32-10.89 361.22-9.64 360.12-8.4 360.12-6.74L360.12-6.74Q360.12-4.52 361.44-3.54 362.76-2.56 364.64-2.56ZM391.37 0.61L391.37 0.61Q387.44 0.61 385.9-1.66 384.36-3.93 384.36-7.62L384.36-7.62 384.36-21.73 380.65-21.73 380.65-24.78 384.58-24.98 385.04-33.08 388.34-33.08 388.34-24.98 395.2-24.98 395.2-21.73 388.34-21.73 388.34-7.52Q388.34-5.2 389.19-3.91 390.05-2.61 392.25-2.61L392.25-2.61Q392.9-2.61 393.64-2.75 394.37-2.88 395.13-3.22L395.13-3.22 396-0.44Q395 0 393.81 0.31 392.61 0.61 391.37 0.61ZM406.62 0.61L406.62 0.61Q403.5 0.61 401.4-1.21 399.3-3.03 399.3-6.42L399.3-6.42Q399.3-10.52 403.02-12.72 406.74-14.92 414.78-15.82L414.78-15.82Q414.78-17.48 414.33-18.97 413.87-20.46 412.74-21.41 411.6-22.36 409.5-22.36L409.5-22.36Q407.28-22.36 405.34-21.51 403.4-20.65 401.94-19.73L401.94-19.73 400.4-22.36Q402.06-23.51 404.58-24.56 407.11-25.61 410.14-25.61L410.14-25.61Q414.7-25.61 416.72-22.8 418.73-20 418.73-15.41L418.73-15.41 418.73 0 415.44 0 415.12-3.03 414.97-3.03Q413.17-1.54 411.05-0.46 408.94 0.61 406.62 0.61ZM407.7-2.56L407.7-2.56Q409.58-2.56 411.22-3.44 412.87-4.32 414.78-5.96L414.78-5.96 414.78-13.18Q410.46-12.65 407.92-11.77 405.38-10.89 404.28-9.64 403.18-8.4 403.18-6.74L403.18-6.74Q403.18-4.52 404.5-3.54 405.82-2.56 407.7-2.56Z" opacity="1" transform="matrix(1,0,0,1,0,0)" fill="#ffffff" class="wordmark-text-0" data-fill-palette-color="primary" id="text-0"></path></svg></g></svg></g></svg></g></svg></g><g transform="matrix(1,0,0,1,150.83960459592612,0)"><svg viewBox="0 0 93.84079080814774 49.30789571369613" height="49.30789571369613" width="93.84079080814774"><g><svg xmlns="http://www.w3.org/2000/svg" xmlns:xlink="http://www.w3.org/1999/xlink" version="1.1" x="8" y="0" viewBox="5.664 21.916123973277855 88.672 56.16887602672214" enable-background="new 0 0 100 100" xml:space="preserve" height="49.30789571369613" width="77.84079080814774" class="icon-icon-0" data-fill-palette-color="accent" id="icon-0"><path d="M52.177 33.594S52.198 33.594 52.198 33.617V33.594zM52.177 33.594S52.198 33.594 52.198 33.617V33.594zM52.177 33.594S52.198 33.594 52.198 33.617V33.594zM52.177 33.594S52.198 33.594 52.198 33.617V33.594zM52.177 33.594S52.198 33.594 52.198 33.617V33.594zM52.177 33.594S52.198 33.594 52.198 33.617V33.594zM52.177 33.594S52.198 33.594 52.198 33.617V33.594zM52.177 33.594S52.198 33.594 52.198 33.617V33.594zM52.177 33.594S52.198 33.594 52.198 33.617V33.594zM52.177 33.594S52.198 33.594 52.198 33.617V33.594zM52.177 33.594S52.198 33.594 52.198 33.617V33.594z" fill="#ffffff" data-fill-palette-color="accent"></path><path d="M61.98 22.934C52.967 20.472 52.374 23.769 50 23.769S46.703 20.23 37.977 22.934C19.358 28.187 5.664 45.354 5.664 65.622V73.821A4.27 4.27 0 0 0 9.928 78.085H90.073A4.27 4.27 0 0 0 94.336 73.821V65.622C94.336 45.309 80.619 28.165 61.98 22.934M87.72 65.622A2.74 2.74 0 0 1 84.994 68.347H54.901A2.724 2.724 0 0 1 52.176 65.622L52.197 57.444A2.205 2.205 0 0 0 49.999 55.247C48.791 55.247 47.801 56.237 47.801 57.444V65.622A2.724 2.724 0 0 1 45.076 68.347H14.983A2.724 2.724 0 0 1 12.258 65.622C12.258 56.059 15.841 47.311 21.732 40.649A39 39 0 0 1 25.556 36.89C26.26 37.879 27.095 39.771 27.578 41.66A1.7 1.7 0 0 0 28.7 42.848C28.854 42.893 29.03 42.914 29.184 42.914A1.72 1.72 0 0 0 30.283 42.498C31.03 41.836 32.063 41.353 33.228 41.047 32.964 42.254 32.92 43.836 33.426 45.817 34.766 50.96 41.449 52.366 41.735 52.411 41.845 52.432 41.954 52.454 42.065 52.454 42.835 52.454 43.515 51.905 43.669 51.136A1.645 1.645 0 0 0 42.394 49.178C42.329 49.178 37.427 48.102 36.613 44.981 35.887 42.233 36.701 40.803 36.943 40.452 39.339 40.276 41.647 40.452 42.878 40.628A1.71 1.71 0 0 0 44.571 39.772C44.878 39.156 44.79 38.387 44.328 37.88 42.328 35.704 42.855 33.242 42.878 33.132A1.655 1.655 0 0 0 41.669 31.155 1.646 1.646 0 0 0 39.669 32.342C39.648 32.473 39.142 34.583 40.044 37.088 37.23 36.978 33.186 37.176 30.108 38.694 29.668 37.464 29.03 36.012 28.173 34.868A37.4 37.4 0 0 1 45.077 28.209S45.319 28.164 45.428 28.164A2.36 2.36 0 0 1 47.802 30.517V49.684C47.802 50.893 48.792 51.884 50 51.884 51.209 51.884 52.198 50.894 52.198 49.684V38.232C53.055 38.848 54.088 39.419 55.341 39.836 55.517 39.902 55.693 39.947 55.848 39.99 54.814 41.551 54.287 43.508 55.101 45.485 56.2 48.167 58.507 48.518 60.177 48.784 60.948 48.917 61.65 49.026 62.199 49.311 64.023 50.235 64.309 52.06 64.221 53.401 64.089 55.905 62.529 58.477 60.771 59.135A1.666 1.666 0 0 0 59.803 61.246 1.65 1.65 0 0 0 61.364 62.322C61.54 62.322 61.737 62.301 61.935 62.213 64.946 61.094 67.299 57.465 67.518 53.598 67.715 50.344 66.309 47.705 63.716 46.365 62.684 45.838 61.627 45.683 60.683 45.531 59.056 45.265 58.506 45.111 58.155 44.232 57.627 43.002 58.594 41.572 59.56 40.715 60.022 40.736 60.462 40.76 60.88 40.76 63.057 40.76 64.484 40.342 64.572 40.321 65.452 40.056 65.935 39.133 65.692 38.254A1.666 1.666 0 0 0 63.628 37.155C63.607 37.176 60.352 38.057 56.396 36.715 54.175 35.968 52.879 34.605 52.198 33.639V33.618C52.198 33.595 52.177 33.595 52.177 33.595H52.198V30.54A2.337 2.337 0 0 1 54.528 28.187H54.88C62.178 29.133 68.73 32.188 74.091 36.694 72.619 36.848 71.101 37.332 69.805 38.43 68.004 39.991 67.191 42.321 67.409 45.397A1.654 1.654 0 0 0 69.057 46.936H69.166A1.646 1.646 0 0 0 70.684 45.178C70.551 43.199 70.969 41.772 71.938 40.959 73.586 39.55 76.684 39.88 77.74 40.124H77.806A38 38 0 0 1 82.619 46.672C78.398 46.453 75.453 49.113 74.376 50.762 74.09 51.178 74.048 51.707 74.2 52.213 74.618 53.377 75.101 56.367 73.892 59.201 73.519 60.103 72.772 60.961 71.694 61.816A1.63 1.63 0 0 0 71.409 64.127C71.716 64.543 72.222 64.764 72.706 64.764A1.62 1.62 0 0 0 73.717 64.412C75.256 63.224 76.334 61.904 76.926 60.498 78.444 56.937 77.959 53.598 77.585 52.014 78.443 51.09 80.575 49.332 83.851 50.191 84.049 50.234 84.247 50.255 84.444 50.212A37.5 37.5 0 0 1 87.741 65.621H87.72z" fill="#ffffff" data-fill-palette-color="accent"></path><path d="M42.13 62.345A1.63 1.63 0 0 1 40.592 64.083C40.217 64.104 39.844 64.104 39.47 64.104A18.8 18.8 0 0 1 35.579 63.708C32.546 63.071 30.457 62.104 28.808 60.831H28.764C24.412 60.675 23.203 63.444 23.072 63.774A1.66 1.66 0 0 1 21.511 64.852C21.335 64.852 21.137 64.807 20.962 64.741A1.623 1.623 0 0 1 19.972 62.655C20.5 61.159 22.281 58.696 25.754 57.841 25.27 57.269 24.808 56.632 24.303 55.993L24.105 55.729C22.281 53.356 19.422 54.672 19.093 54.829 18.28 55.224 17.291 54.917 16.895 54.102A1.65 1.65 0 0 1 17.621 51.883C18.896 51.244 21.27 50.629 23.534 51.42A5.3 5.3 0 0 1 24.127 49.529C24.677 48.517 25.798 47.201 28.127 46.629 29.007 46.387 29.907 46.936 30.127 47.817A1.645 1.645 0 0 1 28.94 49.815C27.995 50.057 27.358 50.477 27.027 51.091 26.5 52.126 26.785 53.511 26.918 53.993 28.126 55.575 29.139 56.872 30.391 57.907 30.456 57.971 30.544 58.038 30.611 58.104 31.973 59.157 33.666 59.95 36.26 60.499 37.579 60.763 38.964 60.874 40.392 60.784 41.317 60.718 42.086 61.444 42.13 62.345" fill="#ffffff" data-fill-palette-color="accent"></path></svg></g></svg></g><g><rect width="150.83960459592612" height="3.217537569616131" y="45.09035814407999" x="244.68039540407386" fill="#ffffff" data-fill-palette-color="accent"></rect><rect width="150.83960459592612" height="3.217537569616131" y="45.09035814407999" x="0" fill="#ffffff" data-fill-palette-color="accent"></rect><rect width="150.83960459592612" height="3.217537569616131" y="38.65528300484773" x="244.68039540407386" fill="#ffffff" data-fill-palette-color="accent"></rect><rect width="150.83960459592612" height="3.217537569616131" y="38.65528300484773" x="0" fill="#ffffff" data-fill-palette-color="accent"></rect></g></svg></g><defs></defs></svg><rect width="395.52" height="93.40941995552149" fill="none" stroke="none" visibility="hidden"></rect></g></svg></g></svg>